Coordinates
version=1
nRows=17
nColumns=40
inDegrees=yes

Units are S.I. units (second, meters, Newtons, ...)
If the header above contains a line with 'inDegrees', this indicates whether rotational values are in degrees (yes) or radians (no).

endheader
time	pelvis_tilt	pelvis_list	pelvis_rotation	pelvis_tx	pelvis_ty	pelvis_tz	hip_flexion_r	hip_adduction_r	hip_rotation_r	knee_angle_r	knee_angle_r_beta	ankle_angle_r	subtalar_angle_r	mtp_angle_r	hip_flexion_l	hip_adduction_l	hip_rotation_l	knee_angle_l	knee_angle_l_beta	ankle_angle_l	subtalar_angle_l	mtp_angle_l	lumbar_extension	lumbar_bending	lumbar_rotation	arm_flex_r	arm_add_r	arm_rot_r	elbow_flex_r	pro_sup_r	wrist_flex_r	wrist_dev_r	arm_flex_l	arm_add_l	arm_rot_l	elbow_flex_l	pro_sup_l	wrist_flex_l	wrist_dev_l
      2.00000000	     -4.43499153	      1.91492276	     -0.03242468	     -0.22866176	      1.03846883	     -1.00743787	      2.97026725	    -10.01884550	     -3.93287541	     70.35655544	      1.22795354	     -1.22461072	      0.00000000	      0.00000000	     11.28227711	      5.27528349	     -2.66379565	     17.35689998	      0.30293505	      0.84683442	      0.00000000	      0.00000000	     -0.93452007	     -2.70859687	     -3.09112247	     89.85611961	     -7.67406170	     53.98033569	     50.04380859	     84.90414456	      0.00000000	      0.00000000	     89.90300725	    -15.83731773	     51.02502285	     52.71902237	     81.24430786	      0.00000000	      0.00000000
      2.00500000	     -4.69567560	      1.72165039	      0.16897496	     -0.22943946	      1.03792496	     -1.00745424	      3.10715644	     -9.79858074	     -4.15174759	     70.49308736	      1.23033647	     -1.37766678	      0.00000000	      0.00000000	     11.80471118	      5.07187741	     -2.40143363	     17.78524375	      0.31041106	      1.07902639	      0.00000000	      0.00000000	     -0.74226717	     -2.55524461	     -3.25682031	     89.85757821	     -7.64712189	     53.80100909	     50.01151331	     85.12225468	      0.00000000	      0.00000000	     89.90340620	    -15.70179190	     50.83930291	     52.58987689	     79.96851331	      0.00000000	      0.00000000
      2.01000000	     -4.74095993	      1.82271262	      0.11213709	     -0.22960186	      1.03764711	     -1.00748525	      3.01455029	     -9.94162585	     -4.17995661	     70.55354853	      1.23139172	     -1.76780242	      0.00000000	      0.00000000	     11.95357154	      5.13721876	     -2.63988873	     17.97778768	      0.31377159	      0.95957592	      0.00000000	      0.00000000	     -0.73599488	     -2.69421709	     -3.21836840	     89.85889038	     -7.62184707	     53.68710893	     50.03265090	     84.73044288	      0.00000000	      0.00000000	     89.90467495	    -15.70966190	     50.61417368	     52.60962086	     81.67954590	      0.00000000	      0.00000000
      2.01500000	     -4.90863922	      1.79943744	      0.14900631	     -0.22992221	      1.03718467	     -1.00757151	      3.03843278	     -9.94967241	     -4.27501471	     70.63526507	      1.23281794	     -1.81378104	      0.00000000	      0.00000000	     12.27480836	      5.09570239	     -2.53740233	     18.24091546	      0.31836403	      1.14008232	      0.00000000	      0.00000000	     -0.60149317	     -2.69631671	     -3.30949540	     89.85968736	     -7.49200861	     53.48838531	     49.93295503	     85.06351594	      0.00000000	      0.00000000	     89.90638606	    -15.77734894	     50.63856985	     52.72232985	     79.45180115	      0.00000000	      0.00000000
      2.02000000	     -5.06401583	      1.73128210	      0.21124580	     -0.23028429	      1.03671106	     -1.00764783	      3.04335020	     -9.92730914	     -4.46191005	     70.66190145	      1.23328284	     -2.13609547	      0.00000000	      0.00000000	     12.63997410	      4.99805715	     -2.74714114	     18.62886070	      0.32513496	      1.26511957	      0.00000000	      0.00000000	     -0.49453625	     -2.66001214	     -3.40528830	     89.86168376	     -7.44108648	     53.36088562	     49.89518447	     85.19791503	      0.00000000	      0.00000000	     89.90681881	    -15.81145516	     50.48541057	     52.74044492	     79.61091758	      0.00000000	      0.00000000
      2.02500000	     -5.22616359	      1.68690996	      0.28798373	     -0.23059954	      1.03624395	     -1.00773893	      3.05911313	     -9.89713905	     -4.58368028	     70.71255148	      1.23416685	     -2.32866250	      0.00000000	      0.00000000	     12.97911640	      4.93399984	     -2.67404066	     18.93015516	      0.33039354	      1.37210452	      0.00000000	      0.00000000	     -0.36347081	     -2.65219062	     -3.44892113	     89.86329481	     -7.44863087	     53.31281141	     49.89378862	     84.70965453	      0.00000000	      0.00000000	     89.90789375	    -15.71130836	     50.24231936	     52.60764390	     81.72829511	      0.00000000	      0.00000000
      2.03000000	     -5.36801975	      1.65795554	      0.33300183	     -0.23064382	      1.03567976	     -1.00790637	      2.99684722	     -9.92130149	     -4.72944336	     70.71143729	      1.23414740	     -2.48176051	      0.00000000	      0.00000000	     13.31089949	      4.87720884	     -2.77000315	     19.31188939	      0.33705605	      1.53669571	      0.00000000	      0.00000000	     -0.23566750	     -2.65138898	     -3.47175769	     89.86437291	     -7.44967438	     53.21643217	     49.85283872	     84.78090447	      0.00000000	      0.00000000	     89.90846984	    -15.66999990	     50.06585227	     52.66537791	     81.36702297	      0.00000000	      0.00000000
      2.03500000	     -5.31842738	      1.85767606	      0.16916178	     -0.23037141	      1.03545058	     -1.00799867	      2.76704846	    -10.22509535	     -4.70269296	     70.66238278	      1.23329124	     -2.70212736	      0.00000000	      0.00000000	     13.28288823	      5.04261621	     -3.00801812	     19.38362496	      0.33830808	      1.57496791	      0.00000000	      0.00000000	     -0.28883509	     -2.88353761	     -3.33204951	     89.86442175	     -7.40479200	     53.13754592	     49.84196879	     84.75288601	      0.00000000	      0.00000000	     89.90922170	    -15.69547540	     50.05361428	     52.68309855	     81.57002641	      0.00000000	      0.00000000
      2.04000000	     -5.44050900	      1.84545134	      0.17685449	     -0.23066769	      1.03495182	     -1.00797873	      2.75551325	    -10.23625131	     -4.77649598	     70.70234703	      1.23398874	     -2.91179356	      0.00000000	      0.00000000	     13.61625675	      4.97288135	     -3.18916816	     19.79588665	      0.34550340	      1.73438098	      0.00000000	      0.00000000	     -0.19889964	     -2.92827692	     -3.30629777	     89.86591512	     -7.46262867	     53.06301975	     49.90710341	     84.73605707	      0.00000000	      0.00000000	     89.90930959	    -15.59820397	     49.88990855	     52.64339477	     81.53211983	      0.00000000	      0.00000000
      2.04500000	     -5.58668665	      1.90896573	      0.18499306	     -0.23096130	      1.03447556	     -1.00804899	      2.75029333	    -10.35641359	     -4.83428989	     70.70602817	      1.23405299	     -2.90599657	      0.00000000	      0.00000000	     13.93419528	      5.00246903	     -3.33739614	     20.09622550	      0.35074530	      1.80971902	      0.00000000	      0.00000000	     -0.09618941	     -3.01819390	     -3.38802425	     89.86654956	     -7.32141743	     52.90059358	     49.81583075	     84.69145271	      0.00000000	      0.00000000	     89.91097632	    -15.72384390	     49.89914737	     52.74261919	     81.71871688	      0.00000000	      0.00000000
      2.05000000	     -5.67845364	      1.93103120	      0.16296447	     -0.23127933	      1.03399914	     -1.00795223	      2.69433160	    -10.41519042	     -4.89862177	     70.65461630	      1.23315569	     -3.21637044	      0.00000000	      0.00000000	     14.18586529	      4.97065629	     -3.48821688	     20.37323629	      0.35558005	      1.87803593	      0.00000000	      0.00000000	     -0.05995222	     -3.09383654	     -3.39280735	     89.86762552	     -7.26257534	     52.69272670	     49.79189147	     85.05995385	      0.00000000	      0.00000000	     89.91200143	    -15.75333550	     49.81211527	     52.83490114	     80.24800887	      0.00000000	      0.00000000
      2.05500000	     -5.81178069	      1.89903412	      0.20535243	     -0.23180929	      1.03352222	     -1.00785380	      2.70512589	    -10.38442749	     -4.98827247	     70.67191882	      1.23345767	     -3.25079236	      0.00000000	      0.00000000	     14.55005543	      4.88992155	     -3.55601146	     20.77411567	      0.36257672	      1.99620407	      0.00000000	      0.00000000	      0.01609369	     -3.10761863	     -3.43738583	     89.86913694	     -7.16619406	     52.56457562	     49.64168976	     84.77643209	      0.00000000	      0.00000000	     89.91263015	    -15.68850213	     49.50040865	     52.74115719	     81.41657415	      0.00000000	      0.00000000
      2.06000000	     -6.12980758	      1.75263186	      0.43042481	     -0.23263935	      1.03265949	     -1.00782817	      2.90372995	    -10.23328517	     -5.21769866	     70.73970643	      1.23464079	     -3.30962878	      0.00000000	      0.00000000	     15.15645086	      4.74303927	     -3.30430057	     21.24492910	      0.37079396	      2.16447942	      0.00000000	      0.00000000	      0.26252058	     -3.02306020	     -3.66673980	     89.87036955	     -7.06907955	     52.33309161	     49.47816945	     85.00943806	      0.00000000	      0.00000000	     89.91364478	    -15.68289578	     49.49586486	     52.76036441	     79.07706249	      0.00000000	      0.00000000
      2.06500000	     -6.27801689	      1.76385794	      0.40511641	     -0.23303189	      1.03198124	     -1.00772857	      2.92621007	    -10.27176833	     -5.22424553	     70.72038449	      1.23430356	     -3.44514222	      0.00000000	      0.00000000	     15.48974305	      4.68698821	     -3.58046387	     21.56650870	      0.37640658	      2.26263671	      0.00000000	      0.00000000	      0.36025165	     -3.10832437	     -3.59747114	     89.87139764	     -7.18941196	     52.24283231	     49.70134912	     84.66231964	      0.00000000	      0.00000000	     89.91415830	    -15.54243250	     49.18712245	     52.70826222	     81.77595740	      0.00000000	      0.00000000
      2.07000000	     -6.40859233	      1.77920406	      0.44274753	     -0.23335369	      1.03141231	     -1.00773834	      2.90323563	    -10.32130966	     -5.30617193	     70.67604599	      1.23352970	     -3.56910276	      0.00000000	      0.00000000	     15.81729751	      4.66639638	     -3.69798654	     21.92448487	      0.38265445	      2.40262316	      0.00000000	      0.00000000	      0.44719087	     -3.16776968	     -3.69383668	     89.87200665	     -7.08221588	     52.13332619	     49.61739433	     84.69956929	      0.00000000	      0.00000000	     89.91524246	    -15.62244840	     49.12026858	     52.81497032	     81.73233617	      0.00000000	      0.00000000
      2.07500000	     -6.56874704	      1.75075950	      0.49313507	     -0.23377240	      1.03081140	     -1.00768589	      2.92796853	    -10.31495149	     -5.40581039	     70.64911627	      1.23305969	     -3.53583236	      0.00000000	      0.00000000	     16.17244304	      4.61440524	     -3.72313284	     22.24389902	      0.38822928	      2.41324083	      0.00000000	      0.00000000	      0.54924883	     -3.19610130	     -3.74528794	     89.87325238	     -7.06438354	     52.02584447	     49.62547225	     84.66522971	      0.00000000	      0.00000000	     89.91596099	    -15.60557445	     48.88964705	     52.84631599	     81.77933815	      0.00000000	      0.00000000
      2.08000000	     -6.50623999	      2.01668632	      0.36126300	     -0.23328730	      1.03041562	     -1.00788018	      2.64147333	    -10.70428120	     -5.40652889	     70.52473795	      1.23088888	     -3.60331462	      0.00000000	      0.00000000	     16.11646078	      4.83595861	     -4.11411864	     22.34917995	      0.39006678	      2.56242613	      0.00000000	      0.00000000	      0.50616506	     -3.48880471	     -3.64120223	     89.87373910	     -6.99631786	     51.98015485	     49.56490401	     84.66077835	      0.00000000	      0.00000000	     89.91663369	    -15.66524172	     48.91239303	     52.86334978	     81.76893997	      0.00000000	      0.00000000
